<svg width="24" height="24" viewBox="0 0 24 24" fill="none"
  xmlns="http://www.w3.org/2000/svg">
  <rect width="24" height="24" rx="4" fill="#1F1D86"/>
  <path d="M11 14C13.7614 14 16 11.7614 16 9C16 6.23858 13.7614 4 11 4C8.23858 4 6 6.23858 6 9C6 11.7614 8.23858 14 11 14Z" fill="#D8D8FF"/>
  <path d="M14.309 12.723C13.426 13.508 12.275 14 11 14C9.725 14 8.574 13.508 7.691 12.723C6.29291 13.3575 5.10708 14.3811 4.27521 15.6715C3.44335 16.962 3.00064 18.4647 3 20C3 20.2652 3.10536 20.5196 3.29289 20.7071C3.48043 20.8946 3.73478 21 4 21H18C18.2652 21 18.5196 20.8946 18.7071 20.7071C18.8946 20.5196 19 20.2652 19 20C18.9994 18.4647 18.5566 16.962 17.7248 15.6715C16.8929 14.3811 15.7071 13.3575 14.309 12.723Z" fill="#B2B1FF"/>
  <path d="M19.334 14C19.2027 14.0001 19.0726 13.9743 18.9513 13.924C18.8299 13.8738 18.7198 13.8 18.627 13.707L17.293 12.374C17.1109 12.1854 17.0101 11.9328 17.0123 11.6706C17.0146 11.4084 17.1198 11.1576 17.3052 10.9722C17.4906 10.7868 17.7414 10.6816 18.0036 10.6793C18.2658 10.6771 18.5184 10.7778 18.707 10.96L19.333 11.586L21.293 9.626C21.4816 9.44384 21.7342 9.34305 21.9964 9.34533C22.2586 9.34761 22.5094 9.45278 22.6948 9.63818C22.8802 9.82359 22.9854 10.0744 22.9877 10.3366C22.99 10.5988 22.8892 10.8514 22.707 11.04L20.041 13.707C19.9483 13.8 19.8381 13.8738 19.7167 13.924C19.5954 13.9743 19.4653 14.0001 19.334 14Z" fill="#6563FF"/>
</svg>
